<?xml version="1.0" standalone="no"?>
<!DOCTYPE svg PUBLIC "-//W3C//DTD SVG 20010904//EN"
 "http://www.w3.org/TR/2001/REC-SVG-20010904/DTD/svg10.dtd">
<svg version="1.0" xmlns="http://www.w3.org/2000/svg"
 width="1024.000000pt" height="1024.000000pt" viewBox="0 0 1024.000000 1024.000000"
 preserveAspectRatio="xMidYMid meet">
<metadata>
Created by potrace 1.14, written by Peter Selinger 2001-2017
</metadata>
<g transform="translate(0.000000,1024.000000) scale(0.100000,-0.100000)"
fill="#000000" stroke="none">
<path d="M1641 7934 c-161 -43 -286 -167 -335 -333 -15 -50 -16 -280 -16
-2495 0 -2644 -3 -2482 55 -2595 35 -69 126 -161 193 -195 119 -60 -149 -56
3587 -56 3000 0 3428 2 3478 15 161 42 283 156 337 314 l20 61 -2 2472 -3
2473 -37 78 c-63 131 -176 226 -313 262 -53 13 -438 15 -3485 14 -2960 0
-3432 -2 -3479 -15z m6925 -330 c15 -11 37 -33 48 -48 l21 -27 0 -2424 0
-2424 -21 -27 c-11 -15 -33 -37 -48 -48 -26 -20 -42 -21 -335 -24 l-308 -3
-623 998 c-354 567 -640 1014 -661 1034 -99 97 -289 90 -385 -13 -17 -18 -170
-256 -339 -528 -169 -272 -313 -501 -319 -507 -9 -10 -167 236 -655 1017 -389
622 -659 1045 -684 1070 -58 57 -132 84 -232 84 -72 1 -89 -3 -148 -32 -43
-21 -78 -48 -100 -75 -18 -23 -456 -719 -972 -1546 l-939 -1503 -78 4 c-84 5
-112 18 -152 72 l-21 27 -3 2410 c-2 2047 0 2414 12 2443 14 35 66 80 101 89
11 3 1549 4 3417 3 l3397 -1 27 -21z m-3642 -3607 c483 -774 876 -1410 874
-1412 -3 -3 -802 -4 -1777 -3 l-1772 3 40 62 c22 33 71 111 108 171 37 60 417
668 843 1351 515 824 780 1240 790 1238 8 -1 410 -636 894 -1410z m2061 -527
c291 -465 535 -855 543 -868 l14 -22 -677 2 -678 3 -203 325 c-112 179 -201
330 -199 336 5 18 667 1075 670 1072 2 -2 240 -383 530 -848z"/>
<path d="M6896 7159 c-171 -23 -334 -108 -458 -237 -139 -146 -208 -304 -216
-498 -5 -132 8 -218 50 -327 83 -216 262 -383 490 -460 87 -29 103 -31 238
-31 138 0 149 1 240 32 52 18 117 46 145 62 189 110 325 292 376 505 28 117
23 292 -11 400 -85 270 -308 480 -573 539 -87 20 -200 26 -281 15z m220 -333
c227 -60 375 -289 336 -518 -42 -245 -277 -417 -519 -379 -316 49 -487 394
-335 675 54 100 182 200 288 225 59 14 173 12 230 -3z"/>
</g>
</svg>
